<svg xmlns="http://www.w3.org/2000/svg" width="400" height="300" viewBox="0 0 400 300" role="img" aria-label="ConvolvedDistributions logo">
  <title>ConvolvedDistributions.jl</title>
  <desc>Two probability densities whose convolution is a broader density, in the Julia colour palette.</desc>
  <line x1="40" y1="250" x2="360" y2="250" stroke="#888888" stroke-width="2.5" stroke-linecap="round" stroke-opacity="0.7"/>
  <path d="M 40.00 249.82 L 42.29 249.76 L 44.57 249.69 L 46.86 249.59 L 49.14 249.47 L 51.43 249.32 L 53.71 249.13 L 56.00 248.89 L 58.29 248.60 L 60.57 248.24 L 62.86 247.79 L 65.14 247.25 L 67.43 246.60 L 69.71 245.82 L 72.00 244.89 L 74.29 243.79 L 76.57 242.50 L 78.86 240.99 L 81.14 239.23 L 83.43 237.21 L 85.71 234.90 L 88.00 232.27 L 90.29 229.31 L 92.57 225.99 L 94.86 222.30 L 97.14 218.23 L 99.43 213.77 L 101.71 208.93 L 104.00 203.70 L 106.29 198.12 L 108.57 192.19 L 110.86 185.96 L 113.14 179.48 L 115.43 172.78 L 117.71 165.94 L 120.00 159.02 L 122.29 152.10 L 124.57 145.27 L 126.86 138.60 L 129.14 132.20 L 131.43 126.16 L 133.71 120.55 L 136.00 115.48 L 138.29 111.01 L 140.57 107.23 L 142.86 104.19 L 145.14 101.95 L 147.43 100.55 L 149.71 100.01 L 152.00 100.33 L 154.29 101.52 L 156.57 103.56 L 158.86 106.40 L 161.14 110.00 L 163.43 114.30 L 165.71 119.23 L 168.00 124.71 L 170.29 130.65 L 172.57 136.98 L 174.86 143.58 L 177.14 150.38 L 179.43 157.29 L 181.71 164.21 L 184.00 171.08 L 186.29 177.82 L 188.57 184.37 L 190.86 190.66 L 193.14 196.67 L 195.43 202.34 L 197.71 207.66 L 200.00 212.60 L 202.29 217.15 L 204.57 221.32 L 206.86 225.10 L 209.14 228.51 L 211.43 231.56 L 213.71 234.27 L 216.00 236.66 L 218.29 238.75 L 220.57 240.57 L 222.86 242.14 L 225.14 243.49 L 227.43 244.63 L 229.71 245.61 L 232.00 246.42 L 234.29 247.10 L 236.57 247.67 L 238.86 248.13 L 241.14 248.51 L 243.43 248.83 L 245.71 249.08 L 248.00 249.28 L 250.29 249.44 L 252.57 249.57 L 254.86 249.67 L 257.14 249.75 L 259.43 249.81 L 261.71 249.85 L 264.00 249.89 L 266.29 249.92 L 268.57 249.94 L 270.86 249.96 L 273.14 249.97 L 275.43 249.98 L 277.71 249.98 L 280.00 249.99 L 282.29 249.99 L 284.57 249.99 L 286.86 250.00 L 289.14 250.00 L 291.43 250.00 L 293.71 250.00 L 296.00 250.00 L 298.29 250.00 L 300.57 250.00 L 302.86 250.00 L 305.14 250.00 L 307.43 250.00 L 309.71 250.00 L 312.00 250.00 L 314.29 250.00 L 316.57 250.00 L 318.86 250.00 L 321.14 250.00 L 323.43 250.00 L 325.71 250.00 L 328.00 250.00 L 330.29 250.00 L 332.57 250.00 L 334.86 250.00 L 337.14 250.00 L 339.43 250.00 L 341.71 250.00 L 344.00 250.00 L 346.29 250.00 L 348.57 250.00 L 350.86 250.00 L 353.14 250.00 L 355.43 250.00 L 357.71 250.00 L 360.00 250.00 L 360.00 250.00 L 40.00 250.00 Z" fill="#9558B2" fill-opacity="0.20"/>
  <path d="M 40.00 249.82 L 42.29 249.76 L 44.57 249.69 L 46.86 249.59 L 49.14 249.47 L 51.43 249.32 L 53.71 249.13 L 56.00 248.89 L 58.29 248.60 L 60.57 248.24 L 62.86 247.79 L 65.14 247.25 L 67.43 246.60 L 69.71 245.82 L 72.00 244.89 L 74.29 243.79 L 76.57 242.50 L 78.86 240.99 L 81.14 239.23 L 83.43 237.21 L 85.71 234.90 L 88.00 232.27 L 90.29 229.31 L 92.57 225.99 L 94.86 222.30 L 97.14 218.23 L 99.43 213.77 L 101.71 208.93 L 104.00 203.70 L 106.29 198.12 L 108.57 192.19 L 110.86 185.96 L 113.14 179.48 L 115.43 172.78 L 117.71 165.94 L 120.00 159.02 L 122.29 152.10 L 124.57 145.27 L 126.86 138.60 L 129.14 132.20 L 131.43 126.16 L 133.71 120.55 L 136.00 115.48 L 138.29 111.01 L 140.57 107.23 L 142.86 104.19 L 145.14 101.95 L 147.43 100.55 L 149.71 100.01 L 152.00 100.33 L 154.29 101.52 L 156.57 103.56 L 158.86 106.40 L 161.14 110.00 L 163.43 114.30 L 165.71 119.23 L 168.00 124.71 L 170.29 130.65 L 172.57 136.98 L 174.86 143.58 L 177.14 150.38 L 179.43 157.29 L 181.71 164.21 L 184.00 171.08 L 186.29 177.82 L 188.57 184.37 L 190.86 190.66 L 193.14 196.67 L 195.43 202.34 L 197.71 207.66 L 200.00 212.60 L 202.29 217.15 L 204.57 221.32 L 206.86 225.10 L 209.14 228.51 L 211.43 231.56 L 213.71 234.27 L 216.00 236.66 L 218.29 238.75 L 220.57 240.57 L 222.86 242.14 L 225.14 243.49 L 227.43 244.63 L 229.71 245.61 L 232.00 246.42 L 234.29 247.10 L 236.57 247.67 L 238.86 248.13 L 241.14 248.51 L 243.43 248.83 L 245.71 249.08 L 248.00 249.28 L 250.29 249.44 L 252.57 249.57 L 254.86 249.67 L 257.14 249.75 L 259.43 249.81 L 261.71 249.85 L 264.00 249.89 L 266.29 249.92 L 268.57 249.94 L 270.86 249.96 L 273.14 249.97 L 275.43 249.98 L 277.71 249.98 L 280.00 249.99 L 282.29 249.99 L 284.57 249.99 L 286.86 250.00 L 289.14 250.00 L 291.43 250.00 L 293.71 250.00 L 296.00 250.00 L 298.29 250.00 L 300.57 250.00 L 302.86 250.00 L 305.14 250.00 L 307.43 250.00 L 309.71 250.00 L 312.00 250.00 L 314.29 250.00 L 316.57 250.00 L 318.86 250.00 L 321.14 250.00 L 323.43 250.00 L 325.71 250.00 L 328.00 250.00 L 330.29 250.00 L 332.57 250.00 L 334.86 250.00 L 337.14 250.00 L 339.43 250.00 L 341.71 250.00 L 344.00 250.00 L 346.29 250.00 L 348.57 250.00 L 350.86 250.00 L 353.14 250.00 L 355.43 250.00 L 357.71 250.00 L 360.00 250.00" fill="none" stroke="#9558B2" stroke-width="4" stroke-linejoin="round" stroke-linecap="round"/>
  <path d="M 40.00 250.00 L 42.29 250.00 L 44.57 250.00 L 46.86 250.00 L 49.14 250.00 L 51.43 250.00 L 53.71 250.00 L 56.00 250.00 L 58.29 250.00 L 60.57 250.00 L 62.86 250.00 L 65.14 250.00 L 67.43 250.00 L 69.71 250.00 L 72.00 250.00 L 74.29 250.00 L 76.57 250.00 L 78.86 249.99 L 81.14 249.99 L 83.43 249.99 L 85.71 249.99 L 88.00 249.98 L 90.29 249.97 L 92.57 249.96 L 94.86 249.95 L 97.14 249.93 L 99.43 249.91 L 101.71 249.88 L 104.00 249.84 L 106.29 249.79 L 108.57 249.72 L 110.86 249.64 L 113.14 249.53 L 115.43 249.39 L 117.71 249.22 L 120.00 249.00 L 122.29 248.73 L 124.57 248.40 L 126.86 248.00 L 129.14 247.50 L 131.43 246.90 L 133.71 246.18 L 136.00 245.32 L 138.29 244.30 L 140.57 243.09 L 142.86 241.68 L 145.14 240.03 L 147.43 238.13 L 149.71 235.95 L 152.00 233.46 L 154.29 230.65 L 156.57 227.49 L 158.86 223.96 L 161.14 220.06 L 163.43 215.77 L 165.71 211.09 L 168.00 206.03 L 170.29 200.60 L 172.57 194.82 L 174.86 188.72 L 177.14 182.34 L 179.43 175.73 L 181.71 168.95 L 184.00 162.05 L 186.29 155.12 L 188.57 148.24 L 190.86 141.49 L 193.14 134.97 L 195.43 128.75 L 197.71 122.94 L 200.00 117.63 L 202.29 112.88 L 204.57 108.79 L 206.86 105.42 L 209.14 102.83 L 211.43 101.06 L 213.71 100.14 L 216.00 100.08 L 218.29 100.90 L 220.57 102.56 L 222.86 105.06 L 225.14 108.33 L 227.43 112.34 L 229.71 117.00 L 232.00 122.25 L 234.29 128.00 L 236.57 134.17 L 238.86 140.66 L 241.14 147.39 L 243.43 154.26 L 245.71 161.19 L 248.00 168.09 L 250.29 174.89 L 252.57 181.53 L 254.86 187.94 L 257.14 194.08 L 259.43 199.90 L 261.71 205.38 L 264.00 210.48 L 266.29 215.21 L 268.57 219.55 L 270.86 223.50 L 273.14 227.07 L 275.43 230.27 L 277.71 233.13 L 280.00 235.65 L 282.29 237.87 L 284.57 239.81 L 286.86 241.48 L 289.14 242.92 L 291.43 244.16 L 293.71 245.20 L 296.00 246.08 L 298.29 246.82 L 300.57 247.43 L 302.86 247.94 L 305.14 248.36 L 307.43 248.70 L 309.71 248.97 L 312.00 249.19 L 314.29 249.37 L 316.57 249.51 L 318.86 249.63 L 321.14 249.71 L 323.43 249.78 L 325.71 249.83 L 328.00 249.88 L 330.29 249.91 L 332.57 249.93 L 334.86 249.95 L 337.14 249.96 L 339.43 249.97 L 341.71 249.98 L 344.00 249.99 L 346.29 249.99 L 348.57 249.99 L 350.86 249.99 L 353.14 250.00 L 355.43 250.00 L 357.71 250.00 L 360.00 250.00 L 360.00 250.00 L 40.00 250.00 Z" fill="#CB3C33" fill-opacity="0.20"/>
  <path d="M 40.00 250.00 L 42.29 250.00 L 44.57 250.00 L 46.86 250.00 L 49.14 250.00 L 51.43 250.00 L 53.71 250.00 L 56.00 250.00 L 58.29 250.00 L 60.57 250.00 L 62.86 250.00 L 65.14 250.00 L 67.43 250.00 L 69.71 250.00 L 72.00 250.00 L 74.29 250.00 L 76.57 250.00 L 78.86 249.99 L 81.14 249.99 L 83.43 249.99 L 85.71 249.99 L 88.00 249.98 L 90.29 249.97 L 92.57 249.96 L 94.86 249.95 L 97.14 249.93 L 99.43 249.91 L 101.71 249.88 L 104.00 249.84 L 106.29 249.79 L 108.57 249.72 L 110.86 249.64 L 113.14 249.53 L 115.43 249.39 L 117.71 249.22 L 120.00 249.00 L 122.29 248.73 L 124.57 248.40 L 126.86 248.00 L 129.14 247.50 L 131.43 246.90 L 133.71 246.18 L 136.00 245.32 L 138.29 244.30 L 140.57 243.09 L 142.86 241.68 L 145.14 240.03 L 147.43 238.13 L 149.71 235.95 L 152.00 233.46 L 154.29 230.65 L 156.57 227.49 L 158.86 223.96 L 161.14 220.06 L 163.43 215.77 L 165.71 211.09 L 168.00 206.03 L 170.29 200.60 L 172.57 194.82 L 174.86 188.72 L 177.14 182.34 L 179.43 175.73 L 181.71 168.95 L 184.00 162.05 L 186.29 155.12 L 188.57 148.24 L 190.86 141.49 L 193.14 134.97 L 195.43 128.75 L 197.71 122.94 L 200.00 117.63 L 202.29 112.88 L 204.57 108.79 L 206.86 105.42 L 209.14 102.83 L 211.43 101.06 L 213.71 100.14 L 216.00 100.08 L 218.29 100.90 L 220.57 102.56 L 222.86 105.06 L 225.14 108.33 L 227.43 112.34 L 229.71 117.00 L 232.00 122.25 L 234.29 128.00 L 236.57 134.17 L 238.86 140.66 L 241.14 147.39 L 243.43 154.26 L 245.71 161.19 L 248.00 168.09 L 250.29 174.89 L 252.57 181.53 L 254.86 187.94 L 257.14 194.08 L 259.43 199.90 L 261.71 205.38 L 264.00 210.48 L 266.29 215.21 L 268.57 219.55 L 270.86 223.50 L 273.14 227.07 L 275.43 230.27 L 277.71 233.13 L 280.00 235.65 L 282.29 237.87 L 284.57 239.81 L 286.86 241.48 L 289.14 242.92 L 291.43 244.16 L 293.71 245.20 L 296.00 246.08 L 298.29 246.82 L 300.57 247.43 L 302.86 247.94 L 305.14 248.36 L 307.43 248.70 L 309.71 248.97 L 312.00 249.19 L 314.29 249.37 L 316.57 249.51 L 318.86 249.63 L 321.14 249.71 L 323.43 249.78 L 325.71 249.83 L 328.00 249.88 L 330.29 249.91 L 332.57 249.93 L 334.86 249.95 L 337.14 249.96 L 339.43 249.97 L 341.71 249.98 L 344.00 249.99 L 346.29 249.99 L 348.57 249.99 L 350.86 249.99 L 353.14 250.00 L 355.43 250.00 L 357.71 250.00 L 360.00 250.00" fill="none" stroke="#CB3C33" stroke-width="4" stroke-linejoin="round" stroke-linecap="round"/>
  <path d="M 40.00 244.11 L 42.29 243.52 L 44.57 242.88 L 46.86 242.18 L 49.14 241.44 L 51.43 240.64 L 53.71 239.78 L 56.00 238.85 L 58.29 237.87 L 60.57 236.81 L 62.86 235.69 L 65.14 234.50 L 67.43 233.23 L 69.71 231.89 L 72.00 230.46 L 74.29 228.96 L 76.57 227.39 L 78.86 225.72 L 81.14 223.98 L 83.43 222.16 L 85.71 220.25 L 88.00 218.27 L 90.29 216.20 L 92.57 214.05 L 94.86 211.83 L 97.14 209.54 L 99.43 207.17 L 101.71 204.73 L 104.00 202.23 L 106.29 199.67 L 108.57 197.05 L 110.86 194.39 L 113.14 191.68 L 115.43 188.93 L 117.71 186.16 L 120.00 183.36 L 122.29 180.54 L 124.57 177.72 L 126.86 174.91 L 129.14 172.10 L 131.43 169.31 L 133.71 166.56 L 136.00 163.84 L 138.29 161.18 L 140.57 158.57 L 142.86 156.03 L 145.14 153.57 L 147.43 151.21 L 149.71 148.94 L 152.00 146.77 L 154.29 144.73 L 156.57 142.81 L 158.86 141.03 L 161.14 139.39 L 163.43 137.90 L 165.71 136.56 L 168.00 135.39 L 170.29 134.38 L 172.57 133.55 L 174.86 132.89 L 177.14 132.41 L 179.43 132.12 L 181.71 132.00 L 184.00 132.07 L 186.29 132.32 L 188.57 132.75 L 190.86 133.37 L 193.14 134.16 L 195.43 135.12 L 197.71 136.25 L 200.00 137.55 L 202.29 139.00 L 204.57 140.61 L 206.86 142.35 L 209.14 144.24 L 211.43 146.25 L 213.71 148.39 L 216.00 150.63 L 218.29 152.97 L 220.57 155.41 L 222.86 157.93 L 225.14 160.52 L 227.43 163.17 L 229.71 165.88 L 232.00 168.62 L 234.29 171.40 L 236.57 174.20 L 238.86 177.02 L 241.14 179.84 L 243.43 182.66 L 245.71 185.46 L 248.00 188.24 L 250.29 191.00 L 252.57 193.71 L 254.86 196.39 L 257.14 199.02 L 259.43 201.59 L 261.71 204.11 L 264.00 206.56 L 266.29 208.95 L 268.57 211.27 L 270.86 213.51 L 273.14 215.67 L 275.43 217.76 L 277.71 219.76 L 280.00 221.69 L 282.29 223.53 L 284.57 225.30 L 286.86 226.98 L 289.14 228.58 L 291.43 230.10 L 293.71 231.54 L 296.00 232.90 L 298.29 234.19 L 300.57 235.40 L 302.86 236.54 L 305.14 237.61 L 307.43 238.61 L 309.71 239.55 L 312.00 240.43 L 314.29 241.24 L 316.57 242.00 L 318.86 242.71 L 321.14 243.36 L 323.43 243.96 L 325.71 244.52 L 328.00 245.03 L 330.29 245.51 L 332.57 245.94 L 334.86 246.34 L 337.14 246.70 L 339.43 247.03 L 341.71 247.34 L 344.00 247.61 L 346.29 247.86 L 348.57 248.09 L 350.86 248.30 L 353.14 248.48 L 355.43 248.65 L 357.71 248.80 L 360.00 248.94 L 360.00 250.00 L 40.00 250.00 Z" fill="#389826" fill-opacity="0.22"/>
  <path d="M 40.00 244.11 L 42.29 243.52 L 44.57 242.88 L 46.86 242.18 L 49.14 241.44 L 51.43 240.64 L 53.71 239.78 L 56.00 238.85 L 58.29 237.87 L 60.57 236.81 L 62.86 235.69 L 65.14 234.50 L 67.43 233.23 L 69.71 231.89 L 72.00 230.46 L 74.29 228.96 L 76.57 227.39 L 78.86 225.72 L 81.14 223.98 L 83.43 222.16 L 85.71 220.25 L 88.00 218.27 L 90.29 216.20 L 92.57 214.05 L 94.86 211.83 L 97.14 209.54 L 99.43 207.17 L 101.71 204.73 L 104.00 202.23 L 106.29 199.67 L 108.57 197.05 L 110.86 194.39 L 113.14 191.68 L 115.43 188.93 L 117.71 186.16 L 120.00 183.36 L 122.29 180.54 L 124.57 177.72 L 126.86 174.91 L 129.14 172.10 L 131.43 169.31 L 133.71 166.56 L 136.00 163.84 L 138.29 161.18 L 140.57 158.57 L 142.86 156.03 L 145.14 153.57 L 147.43 151.21 L 149.71 148.94 L 152.00 146.77 L 154.29 144.73 L 156.57 142.81 L 158.86 141.03 L 161.14 139.39 L 163.43 137.90 L 165.71 136.56 L 168.00 135.39 L 170.29 134.38 L 172.57 133.55 L 174.86 132.89 L 177.14 132.41 L 179.43 132.12 L 181.71 132.00 L 184.00 132.07 L 186.29 132.32 L 188.57 132.75 L 190.86 133.37 L 193.14 134.16 L 195.43 135.12 L 197.71 136.25 L 200.00 137.55 L 202.29 139.00 L 204.57 140.61 L 206.86 142.35 L 209.14 144.24 L 211.43 146.25 L 213.71 148.39 L 216.00 150.63 L 218.29 152.97 L 220.57 155.41 L 222.86 157.93 L 225.14 160.52 L 227.43 163.17 L 229.71 165.88 L 232.00 168.62 L 234.29 171.40 L 236.57 174.20 L 238.86 177.02 L 241.14 179.84 L 243.43 182.66 L 245.71 185.46 L 248.00 188.24 L 250.29 191.00 L 252.57 193.71 L 254.86 196.39 L 257.14 199.02 L 259.43 201.59 L 261.71 204.11 L 264.00 206.56 L 266.29 208.95 L 268.57 211.27 L 270.86 213.51 L 273.14 215.67 L 275.43 217.76 L 277.71 219.76 L 280.00 221.69 L 282.29 223.53 L 284.57 225.30 L 286.86 226.98 L 289.14 228.58 L 291.43 230.10 L 293.71 231.54 L 296.00 232.90 L 298.29 234.19 L 300.57 235.40 L 302.86 236.54 L 305.14 237.61 L 307.43 238.61 L 309.71 239.55 L 312.00 240.43 L 314.29 241.24 L 316.57 242.00 L 318.86 242.71 L 321.14 243.36 L 323.43 243.96 L 325.71 244.52 L 328.00 245.03 L 330.29 245.51 L 332.57 245.94 L 334.86 246.34 L 337.14 246.70 L 339.43 247.03 L 341.71 247.34 L 344.00 247.61 L 346.29 247.86 L 348.57 248.09 L 350.86 248.30 L 353.14 248.48 L 355.43 248.65 L 357.71 248.80 L 360.00 248.94" fill="none" stroke="#389826" stroke-width="6" stroke-linejoin="round" stroke-linecap="round"/>
  <line x1="182.5" y1="74.0" x2="182.5" y2="59.0" stroke="#4063D8" stroke-width="5" stroke-linecap="round"/>
  <line x1="182.5" y1="74.0" x2="169.5" y2="66.5" stroke="#4063D8" stroke-width="5" stroke-linecap="round"/>
  <line x1="182.5" y1="74.0" x2="169.5" y2="81.5" stroke="#4063D8" stroke-width="5" stroke-linecap="round"/>
  <line x1="182.5" y1="74.0" x2="182.5" y2="89.0" stroke="#4063D8" stroke-width="5" stroke-linecap="round"/>
  <line x1="182.5" y1="74.0" x2="195.5" y2="81.5" stroke="#4063D8" stroke-width="5" stroke-linecap="round"/>
  <line x1="182.5" y1="74.0" x2="195.5" y2="66.5" stroke="#4063D8" stroke-width="5" stroke-linecap="round"/>
</svg>
